<svg width="200" height="200" viewBox="0 0 200 200" fill="none" xmlns="http://www.w3.org/2000/svg">
<circle cx="100" cy="100" r="98" fill="#0A1828"/>
<path d="M72.0438 123.3C66.1104 123.3 61.0104 122.033 56.7437 119.5C52.4771 116.9 49.2104 113.433 46.9438 109.1C44.6771 104.767 43.5438 100 43.5438 94.8C43.5438 89.5333 44.6771 84.7667 46.9438 80.5C49.2104 76.1667 52.4771 72.7333 56.7437 70.2C61.0104 67.6 66.1104 66.3 72.0438 66.3C76.3771 66.3 80.2771 67.0333 83.7438 68.5C87.2104 69.9 90.1438 71.8667 92.5438 74.4L90.4438 76.5C88.2438 74.3 85.6104 72.5667 82.5438 71.3C79.4771 70.0333 75.9771 69.4 72.0438 69.4C66.7104 69.4 62.1104 70.5667 58.2438 72.9C54.4438 75.1667 51.5438 78.2333 49.5438 82.1C47.5438 85.9 46.5438 90.1333 46.5438 94.8C46.5438 99.4667 47.5438 103.733 49.5438 107.6C51.5438 111.4 54.4438 114.467 58.2438 116.8C62.1104 119.067 66.7104 120.2 72.0438 120.2C75.9771 120.2 79.4771 119.567 82.5438 118.3C85.6104 117.033 88.2438 115.3 90.4438 113.1L92.5438 115.2C90.1438 117.667 87.2104 119.633 83.7438 121.1C80.2771 122.567 76.3771 123.3 72.0438 123.3ZM72.0438 129.9C66.7104 129.9 61.8771 129 57.5438 127.2C53.2771 125.333 49.5771 122.8 46.4438 119.6C43.3771 116.4 41.0104 112.7 39.3438 108.5C37.7438 104.233 36.9438 99.6667 36.9438 94.8C36.9438 89.9333 37.7438 85.4 39.3438 81.2C41.0104 76.9333 43.3771 73.2 46.4438 70C49.5771 66.7333 53.2771 64.2 57.5438 62.4C61.8771 60.6 66.7104 59.7 72.0438 59.7C77.3104 59.7 82.0438 60.6 86.2438 62.4C90.5104 64.1333 94.1771 66.5667 97.2438 69.7L95.0438 71.9C92.3104 69.0333 88.9771 66.8 85.0438 65.2C81.1771 63.6 76.8438 62.8 72.0438 62.8C65.5104 62.8 59.8104 64.2333 54.9438 67.1C50.1438 69.9667 46.4438 73.8333 43.8438 78.7C41.2438 83.5 39.9438 88.8667 39.9438 94.8C39.9438 100.667 41.2438 106.033 43.8438 110.9C46.4438 115.767 50.1438 119.633 54.9438 122.5C59.8104 125.367 65.5104 126.8 72.0438 126.8C76.8438 126.8 81.1771 126 85.0438 124.4C88.9771 122.8 92.3104 120.567 95.0438 117.7L97.2438 119.9C94.1771 122.967 90.5104 125.4 86.2438 127.2C82.0438 129 77.3104 129.9 72.0438 129.9ZM72.0438 136.5C65.7771 136.5 60.0771 135.433 54.9438 133.3C49.8771 131.1 45.5104 128.1 41.8438 124.3C38.1771 120.5 35.3438 116.1 33.3438 111.1C31.3438 106.033 30.3438 100.6 30.3438 94.8C30.3438 89 31.3438 83.6 33.3438 78.6C35.3438 73.5333 38.1771 69.1 41.8438 65.3C45.5104 61.5 49.8771 58.5333 54.9438 56.4C60.0771 54.2 65.7771 53.1 72.0438 53.1C78.1771 53.1 83.7771 54.1667 88.8438 56.3C93.9104 58.3667 98.2771 61.2667 101.944 65L99.8438 67.1C96.4438 63.7 92.3771 61.0333 87.6438 59.1C82.9771 57.1 77.7771 56.1 72.0438 56.1C66.1771 56.1 60.8771 57.1 56.1438 59.1C51.4104 61.1 47.3438 63.8667 43.9438 67.4C40.5438 70.9333 37.9104 75.0667 36.0438 79.8C34.2438 84.4667 33.3438 89.4667 33.3438 94.8C33.3438 100.133 34.2438 105.167 36.0438 109.9C37.9104 114.567 40.5438 118.667 43.9438 122.2C47.3438 125.733 51.4104 128.5 56.1438 130.5C60.8771 132.5 66.1771 133.5 72.0438 133.5C77.7771 133.5 82.9771 132.533 87.6438 130.6C92.3771 128.6 96.4438 125.9 99.8438 122.5L101.944 124.6C98.2771 128.267 93.9104 131.167 88.8438 133.3C83.7771 135.433 78.1771 136.5 72.0438 136.5ZM123.18 135V54.6H126.18V135H123.18ZM109.98 135V54.6H112.98V135H109.98ZM116.58 135V54.6H119.58V135H116.58ZM129.78 57.6V54.6H169.68V57.6H129.78ZM129.78 64.2V61.2H169.68V64.2H129.78ZM129.78 70.8V67.8H169.68V70.8H129.78ZM129.78 89.7V86.7H163.98V89.7H129.78ZM129.78 96.3V93.3H163.98V96.3H129.78ZM129.78 102.9V99.9H163.98V102.9H129.78Z" fill="#178582"/>
</svg>
